# xmcd
#
# Track frame offsets: 
#        150
#        22296
#        46557
#        65332
#        98577
#        120284
#        147293
#        159623
#        174090
#        196615
#        217730
#
# Disc length: 3114 seconds
#
# Revision: 0
# Processed by: cddbd v1.5.2PL0 Copyright (c) Steve Scherf et al.
# Submitted via: ExactAudioCopyFreeDBPlugin 1.0
#
DISCID=800c280b
DTITLE=Sugarcane Collins - Going Back To Clarksdale
DYEAR=2015
DGENRE=Blues
TTITLE0=Flip Flop Fly
TTITLE1=Trouble In Mind
TTITLE2=Creole Belle
TTITLE3=St James Infirmary Blues
TTITLE4=Going Back To Clarksdale
TTITLE5=Sitting On Top Of The World
TTITLE6=Baby It Must Be Love
TTITLE7=Hungry, Broke And Blue
TTITLE8=Blind Willie
TTITLE9=Walking Blues
TTITLE10=Memphis Town
EXTD=
EXTT0=
EXTT1=
EXTT2=
EXTT3=
EXTT4=
EXTT5=
EXTT6=
EXTT7=
EXTT8=
EXTT9=
EXTT10=
PLAYORDER=
